<svg width="245.41" height="118.751" viewBox="0 0 245.41 118.751" xmlns="http://www.w3.org/2000/svg"><g id="svgGroup" stroke-linecap="round" fill-rule="evenodd" font-size="9pt" stroke="#000" stroke-width="0.25mm" fill="#000" style="stroke:#000;stroke-width:0.25mm;fill:#000"><path d="M 15.479 58.545 L 16.113 50.147 A 1.709 1.709 0 0 1 16.706 48.942 A 2.112 2.112 0 0 1 16.724 48.926 A 1.914 1.914 0 0 1 18.018 48.438 A 1.819 1.819 0 0 1 18.636 48.539 A 1.562 1.562 0 0 1 19.336 49.048 A 2.167 2.167 0 0 1 19.824 50.44 L 19.287 58.497 Q 19.192 60.185 19.294 61.562 A 14.562 14.562 0 0 0 19.458 62.94 A 11.365 11.365 0 0 0 19.769 64.289 Q 20.062 65.263 20.508 65.992 A 5.321 5.321 0 0 0 21.298 67.002 A 4.221 4.221 0 0 0 22.315 67.75 A 4.983 4.983 0 0 0 24.341 68.3 A 5.961 5.961 0 0 0 24.707 68.311 A 5.007 5.007 0 0 0 26.237 68.086 A 4.233 4.233 0 0 0 27.686 67.286 A 6.438 6.438 0 0 0 29.006 65.741 A 8.601 8.601 0 0 0 29.639 64.502 A 14.025 14.025 0 0 0 30.267 62.604 Q 30.53 61.585 30.689 60.425 A 34.79 34.79 0 0 0 30.984 56.874 A 40.499 40.499 0 0 0 31.006 55.518 Q 31.006 53.304 30.829 51.621 A 20.631 20.631 0 0 0 30.664 50.391 Q 30.369 48.622 30.329 47.87 A 4.014 4.014 0 0 1 30.322 47.657 A 1.807 1.807 0 0 1 30.824 46.4 A 2.349 2.349 0 0 1 30.859 46.363 A 1.749 1.749 0 0 1 32.129 45.802 A 2.143 2.143 0 0 1 32.178 45.801 A 1.875 1.875 0 0 1 32.844 45.917 A 1.704 1.704 0 0 1 33.35 46.216 Q 33.838 46.631 33.984 47.315 Q 34.03 47.498 34.247 48.321 A 690.48 690.48 0 0 0 34.277 48.438 A 24.141 24.141 0 0 0 34.488 49.185 Q 34.587 49.518 34.705 49.887 A 48.126 48.126 0 0 0 34.961 50.66 A 20.698 20.698 0 0 0 35.54 52.162 A 26.345 26.345 0 0 0 36.108 53.394 Q 36.816 54.834 37.817 56.055 A 9.342 9.342 0 0 0 40.112 58.082 A 5.364 5.364 0 0 0 42.645 58.874 A 6.565 6.565 0 0 0 43.066 58.887 A 3.93 3.93 0 0 0 43.814 58.82 A 2.82 2.82 0 0 0 44.653 58.521 A 4.63 4.63 0 0 0 45.325 58.07 A 3.766 3.766 0 0 0 45.752 57.666 Q 46.191 57.178 46.411 56.739 L 46.68 56.202 Q 46.924 55.665 47.388 55.347 A 1.738 1.738 0 0 1 48.389 55.03 A 1.827 1.827 0 0 1 49.065 55.151 A 1.66 1.66 0 0 1 49.732 55.64 Q 50.244 56.25 50.244 56.934 A 1.845 1.845 0 0 1 50.194 57.338 Q 50.084 57.825 49.732 58.497 A 6.856 6.856 0 0 1 48.953 59.66 A 8.794 8.794 0 0 1 48.291 60.376 A 8.09 8.09 0 0 1 46.932 61.434 A 10.143 10.143 0 0 1 46.021 61.939 A 6.518 6.518 0 0 1 43.416 62.59 A 7.671 7.671 0 0 1 43.066 62.598 A 8.515 8.515 0 0 1 41.212 62.402 A 7.47 7.47 0 0 1 40.43 62.183 Q 39.209 61.768 38.159 61.084 A 11.911 11.911 0 0 1 36.231 59.522 Q 35.352 58.643 34.619 57.666 Q 34.473 60.206 33.936 62.769 A 17.167 17.167 0 0 1 32.982 65.878 A 14.669 14.669 0 0 1 32.251 67.383 A 9.913 9.913 0 0 1 29.248 70.728 A 7.045 7.045 0 0 1 26.529 71.851 A 9.785 9.785 0 0 1 24.658 72.022 A 9.657 9.657 0 0 1 23.159 71.911 A 7.038 7.038 0 0 1 21.655 71.509 A 7.694 7.694 0 0 1 19.98 70.602 A 6.876 6.876 0 0 1 19.409 70.142 A 7.961 7.961 0 0 1 17.822 68.189 A 14.322 14.322 0 0 1 16.748 65.87 Q 15.039 68.702 12.72 70.24 Q 10.4 71.778 8.106 71.778 A 8.664 8.664 0 0 1 6.134 71.562 A 7.201 7.201 0 0 1 4.761 71.094 Q 3.272 70.411 2.222 69.166 A 8.493 8.493 0 0 1 0.998 67.211 A 10.499 10.499 0 0 1 0.586 66.163 A 11.235 11.235 0 0 1 0.097 63.924 A 14.624 14.624 0 0 1 0 62.208 Q 0 58.545 0.659 55.884 A 33.583 33.583 0 0 1 1.173 54.027 Q 1.62 52.584 2.124 51.514 A 22.765 22.765 0 0 1 2.613 50.535 Q 3.086 49.645 3.513 49.079 A 5.879 5.879 0 0 1 3.613 48.951 L 4.297 48.096 A 1.511 1.511 0 0 1 4.907 47.657 A 2.02 2.02 0 0 1 5.664 47.51 Q 6.445 47.51 6.958 48.072 Q 7.471 48.633 7.471 49.366 Q 7.471 49.903 7.08 50.538 A 65.423 65.423 0 0 1 6.968 50.704 Q 6.804 50.95 6.513 51.38 A 703.977 703.977 0 0 1 6.323 51.661 Q 5.942 52.225 5.549 53.06 A 19.513 19.513 0 0 0 5.176 53.907 A 16.291 16.291 0 0 0 4.72 55.162 Q 4.401 56.156 4.126 57.374 A 17.42 17.42 0 0 0 3.809 59.308 Q 3.699 60.309 3.671 61.439 A 31.584 31.584 0 0 0 3.662 62.208 Q 3.662 64.056 4.144 65.331 A 4.671 4.671 0 0 0 4.834 66.578 Q 6.006 68.067 8.106 68.067 Q 9.131 68.067 10.352 67.505 Q 11.572 66.944 12.647 65.772 Q 13.717 64.604 14.496 62.807 A 14.607 14.607 0 0 0 14.502 62.793 Q 15.26 61.042 15.466 58.693 A 18.691 18.691 0 0 0 15.479 58.545 Z" id="0" vector-effect="non-scaling-stroke"/><path d="M 52.588 65.87 A 7.594 7.594 0 0 0 55.225 68.14 Q 56.714 68.93 58.829 68.99 A 12.41 12.41 0 0 0 59.18 68.995 A 8.592 8.592 0 0 0 62.521 68.349 A 8.253 8.253 0 0 0 63.525 67.847 A 14.061 14.061 0 0 0 66.578 65.407 A 16.247 16.247 0 0 0 67.09 64.844 A 23.85 23.85 0 0 0 69.73 61.12 A 26.568 26.568 0 0 0 69.971 60.694 Q 71.24 58.399 72.266 56.104 A 2.021 2.021 0 0 1 72.538 55.659 A 1.619 1.619 0 0 1 72.949 55.298 A 1.836 1.836 0 0 1 73.926 55.03 A 1.906 1.906 0 0 1 74.581 55.138 A 1.655 1.655 0 0 1 75.269 55.616 A 2.213 2.213 0 0 1 75.615 56.137 A 1.752 1.752 0 0 1 75.781 56.885 Q 75.781 57.129 75.733 57.3 A 1.835 1.835 0 0 1 75.671 57.477 A 2.5 2.5 0 0 1 75.586 57.666 Q 72.217 65.088 68.237 68.848 A 14.632 14.632 0 0 1 64.276 71.568 A 12.603 12.603 0 0 1 59.229 72.706 Q 56.006 72.706 53.662 71.46 A 11.918 11.918 0 0 1 50.507 69.068 A 11.164 11.164 0 0 1 49.805 68.238 A 13.583 13.583 0 0 1 47.559 63.77 A 17.575 17.575 0 0 1 46.826 58.79 Q 46.826 56.299 47.437 54.2 A 12.521 12.521 0 0 1 48.351 51.896 A 10.485 10.485 0 0 1 49.194 50.538 A 8.683 8.683 0 0 1 51.163 48.578 A 8.071 8.071 0 0 1 51.929 48.096 Q 53.516 47.217 55.42 47.217 A 5.638 5.638 0 0 1 57.539 47.639 A 6.452 6.452 0 0 1 57.642 47.681 A 6.375 6.375 0 0 1 59.619 49 A 6.376 6.376 0 0 1 60.858 50.701 A 7.471 7.471 0 0 1 61.035 51.075 A 6.262 6.262 0 0 1 61.497 52.734 A 8.079 8.079 0 0 1 61.572 53.858 A 10.394 10.394 0 0 1 61.058 57.146 A 9.795 9.795 0 0 1 60.889 57.618 Q 60.205 59.375 59.009 60.889 A 15.64 15.64 0 0 1 56.759 63.188 A 17.839 17.839 0 0 1 56.152 63.672 A 20.971 20.971 0 0 1 52.588 65.87 Z M 51.123 62.696 A 11.906 11.906 0 0 0 53.882 61.084 A 11.813 11.813 0 0 0 55.604 59.439 A 10.63 10.63 0 0 0 56.006 58.936 Q 56.885 57.764 57.373 56.47 A 7.349 7.349 0 0 0 57.861 53.858 A 4.683 4.683 0 0 0 57.79 53.012 Q 57.704 52.544 57.514 52.176 A 2.264 2.264 0 0 0 57.129 51.636 A 2.582 2.582 0 0 0 56.428 51.112 A 2.226 2.226 0 0 0 55.42 50.879 A 3.956 3.956 0 0 0 54.27 51.04 A 3.29 3.29 0 0 0 53.174 51.612 A 5.337 5.337 0 0 0 51.933 53.024 A 6.453 6.453 0 0 0 51.66 53.516 A 9.388 9.388 0 0 0 50.982 55.339 A 11.22 11.22 0 0 0 50.806 56.128 A 15.558 15.558 0 0 0 50.537 58.985 A 10.156 10.156 0 0 0 50.614 60.21 A 12.195 12.195 0 0 0 50.708 60.84 A 20.101 20.101 0 0 0 51.006 62.25 A 17.746 17.746 0 0 0 51.123 62.696 Z" id="1" vector-effect="non-scaling-stroke"/><path d="M 112.793 58.912 A 166.196 166.196 0 0 0 112.96 58.601 Q 113.308 57.955 113.428 57.715 A 4.736 4.736 0 0 0 113.464 57.623 Q 113.568 57.345 113.604 57.136 A 1.198 1.198 0 0 0 113.623 56.934 Q 113.623 56.202 113.11 55.616 A 1.655 1.655 0 0 0 112.422 55.138 A 1.906 1.906 0 0 0 111.768 55.03 A 1.836 1.836 0 0 0 110.791 55.298 Q 110.352 55.567 110.108 56.055 Q 109.78 56.735 109.362 57.473 A 33.446 33.446 0 0 1 108.496 58.912 A 25.302 25.302 0 0 1 106.372 61.792 A 15.932 15.932 0 0 1 105.498 62.738 A 12.893 12.893 0 0 1 103.98 64.039 A 6.511 6.511 0 0 1 103.742 64.203 Q 103.278 64.509 102.824 64.689 A 3.417 3.417 0 0 1 101.563 64.942 A 7.232 7.232 0 0 1 100.413 64.855 A 5.271 5.271 0 0 1 99.17 64.502 A 8.803 8.803 0 0 1 98.329 64.09 A 6.759 6.759 0 0 1 97.412 63.477 A 6.902 6.902 0 0 1 96.809 62.936 A 5.13 5.13 0 0 1 96.24 62.256 Q 95.938 61.819 95.751 61.498 A 4.863 4.863 0 0 1 95.606 61.231 A 19.274 19.274 0 0 0 95.752 58.838 A 17.859 17.859 0 0 0 95.264 54.688 A 13.58 13.58 0 0 0 95.015 53.781 A 11.489 11.489 0 0 0 93.75 51.026 A 8.281 8.281 0 0 0 91.187 48.438 A 6.043 6.043 0 0 0 89.423 47.683 A 7.59 7.59 0 0 0 87.549 47.461 Q 86.328 47.461 85.23 47.925 Q 84.131 48.389 83.276 49.244 A 5.827 5.827 0 0 0 82.92 49.634 A 6.28 6.28 0 0 0 81.934 51.294 A 6.343 6.343 0 0 0 81.656 52.143 A 7.196 7.196 0 0 0 81.445 53.907 A 6.024 6.024 0 0 0 81.519 54.823 A 8.075 8.075 0 0 0 81.738 55.811 A 8.123 8.123 0 0 0 82.568 57.74 A 6.026 6.026 0 0 0 82.787 58.08 A 5.097 5.097 0 0 0 83.862 59.229 A 2.755 2.755 0 0 0 85.596 59.815 A 1.772 1.772 0 0 0 86.269 59.685 A 2.045 2.045 0 0 0 86.841 59.327 A 1.563 1.563 0 0 0 87.317 58.605 A 1.977 1.977 0 0 0 87.402 58.008 Q 87.402 56.983 86.572 56.397 A 4.394 4.394 0 0 1 86.373 56.26 Q 86.087 56.052 85.877 55.823 A 2.288 2.288 0 0 1 85.449 55.176 A 3.966 3.966 0 0 1 85.365 54.963 A 3.373 3.373 0 0 1 85.156 53.809 A 1.289 1.289 0 0 1 85.157 53.763 Q 85.163 53.602 85.205 53.223 A 2.248 2.248 0 0 1 85.303 52.778 A 2.916 2.916 0 0 1 85.498 52.32 A 2.242 2.242 0 0 1 85.803 51.88 A 2.836 2.836 0 0 1 86.231 51.49 A 1.567 1.567 0 0 1 86.586 51.292 Q 86.81 51.201 87.087 51.159 A 3.425 3.425 0 0 1 87.598 51.124 A 3.835 3.835 0 0 1 87.851 51.132 A 2.989 2.989 0 0 1 89.6 51.807 A 4.98 4.98 0 0 1 90.319 52.539 A 6.135 6.135 0 0 1 90.991 53.589 A 8.301 8.301 0 0 1 91.413 54.568 A 10.213 10.213 0 0 1 91.821 56.08 Q 92.09 57.471 92.09 58.838 A 13.347 13.347 0 0 1 91.48 62.842 A 14.281 14.281 0 0 1 91.234 63.56 A 12.312 12.312 0 0 1 89.795 66.333 A 10.519 10.519 0 0 1 89.573 66.64 A 9.112 9.112 0 0 1 87.256 68.824 A 6.697 6.697 0 0 1 87.233 68.839 A 5.629 5.629 0 0 1 84.131 69.776 A 4.598 4.598 0 0 1 81.201 68.775 A 7.669 7.669 0 0 1 80.009 67.593 A 10.015 10.015 0 0 1 79.004 66.089 A 15.206 15.206 0 0 1 78.252 64.507 A 19.261 19.261 0 0 1 77.49 62.232 A 30.138 30.138 0 0 1 77.344 61.668 A 33.296 33.296 0 0 1 76.611 57.666 A 319.872 319.872 0 0 0 78.772 52.741 A 370.042 370.042 0 0 0 80.957 47.535 A 147.146 147.146 0 0 0 84.937 36.646 A 102.449 102.449 0 0 0 87.842 25.538 A 60.74 60.74 0 0 0 88.224 23.462 A 53.239 53.239 0 0 0 88.965 14.747 A 39.349 39.349 0 0 0 88.871 11.987 A 30.754 30.754 0 0 0 88.477 8.741 A 24.821 24.821 0 0 0 88.375 8.204 Q 87.894 5.814 87.036 4.078 A 10.127 10.127 0 0 0 86.119 2.554 A 7.367 7.367 0 0 0 84.692 1.075 A 5.091 5.091 0 0 0 81.494 0 A 5.386 5.386 0 0 0 80.538 0.087 A 6.456 6.456 0 0 0 79.199 0.489 Q 78.458 0.798 77.736 1.449 A 8.598 8.598 0 0 0 76.904 2.32 Q 75.781 3.663 74.78 6.08 A 21.467 21.467 0 0 0 74.207 7.647 Q 73.554 9.651 73.023 12.378 A 56.98 56.98 0 0 0 72.685 14.289 Q 72.163 17.559 71.826 21.802 Q 71.552 25.266 71.449 29.521 A 223.262 223.262 0 0 0 71.387 34.913 A 347.766 347.766 0 0 0 71.411 38.978 A 407.426 407.426 0 0 0 71.484 43.262 Q 71.582 47.657 71.997 51.954 A 90.588 90.588 0 0 0 72.166 53.551 A 80.238 80.238 0 0 0 73.193 60.157 A 35.012 35.012 0 0 0 74.06 63.61 A 25.92 25.92 0 0 0 75.366 67.017 A 16.121 16.121 0 0 0 76.614 69.22 A 12.178 12.178 0 0 0 78.858 71.729 A 7.314 7.314 0 0 0 81.197 73.054 A 8.39 8.39 0 0 0 83.936 73.487 A 8.778 8.778 0 0 0 87.085 72.901 A 11.448 11.448 0 0 0 89.99 71.265 A 14.267 14.267 0 0 0 92.481 68.799 A 15.124 15.124 0 0 0 94.385 65.674 Q 94.986 66.275 95.769 66.813 A 13.673 13.673 0 0 0 97.266 67.701 Q 98.309 68.237 99.629 68.455 A 11.875 11.875 0 0 0 101.563 68.604 A 6.692 6.692 0 0 0 104.59 67.872 A 12.665 12.665 0 0 0 107.324 66.016 A 19.79 19.79 0 0 0 109.668 63.55 A 37.745 37.745 0 0 0 110.669 62.244 A 28.59 28.59 0 0 0 111.524 61.011 A 43.339 43.339 0 0 0 111.874 60.467 Q 112.152 60.026 112.386 59.63 A 21.96 21.96 0 0 0 112.793 58.912 Z M 75.684 51.416 Q 77.344 47.315 79.053 42.798 A 124.508 124.508 0 0 0 82.129 33.594 A 95.288 95.288 0 0 0 84.375 24.122 A 52.091 52.091 0 0 0 85.254 14.698 A 40.312 40.312 0 0 0 85.159 11.98 A 46.596 46.596 0 0 0 85.083 11.011 A 22.345 22.345 0 0 0 84.806 8.942 A 17.892 17.892 0 0 0 84.473 7.471 Q 84.065 5.977 83.385 4.944 A 6.203 6.203 0 0 0 83.276 4.786 A 2.864 2.864 0 0 0 82.707 4.174 A 2.142 2.142 0 0 0 81.348 3.711 A 0.811 0.811 0 0 0 81.082 3.761 Q 80.842 3.845 80.541 4.07 A 4.324 4.324 0 0 0 80.347 4.224 A 3.191 3.191 0 0 0 79.958 4.621 Q 79.589 5.062 79.194 5.77 A 13.193 13.193 0 0 0 79.053 6.031 A 12.03 12.03 0 0 0 78.626 6.937 Q 78.187 7.969 77.748 9.412 A 39.04 39.04 0 0 0 77.686 9.62 Q 77.218 11.188 76.808 13.339 A 69.015 69.015 0 0 0 76.441 15.455 Q 75.879 18.995 75.513 23.975 A 121.818 121.818 0 0 0 75.29 27.958 Q 75.147 31.482 75.147 35.694 A 216.943 216.943 0 0 0 75.195 40.259 A 345.043 345.043 0 0 0 75.25 42.524 A 297.368 297.368 0 0 0 75.317 44.678 A 214.603 214.603 0 0 0 75.397 46.692 A 164.693 164.693 0 0 0 75.488 48.536 A 153.255 153.255 0 0 0 75.537 49.375 Q 75.6 50.406 75.663 51.173 A 50.434 50.434 0 0 0 75.684 51.416 Z" id="2" vector-effect="non-scaling-stroke"/><path d="M 135.889 73.633 A 39.315 39.315 0 0 0 140.938 70.942 A 34.622 34.622 0 0 0 142.456 69.922 A 43.11 43.11 0 0 0 146.218 66.932 A 37.176 37.176 0 0 0 147.73 65.503 A 34.494 34.494 0 0 0 150.479 62.417 A 28.991 28.991 0 0 0 151.685 60.767 A 34.919 34.919 0 0 0 153.156 58.405 A 26.092 26.092 0 0 0 154.297 56.153 Q 154.664 55.255 155.577 55.108 A 2.382 2.382 0 0 1 155.957 55.079 A 1.991 1.991 0 0 1 156.596 55.177 A 1.657 1.657 0 0 1 157.3 55.64 A 2.067 2.067 0 0 1 157.65 56.155 A 1.7 1.7 0 0 1 157.813 56.885 A 1.839 1.839 0 0 1 157.666 57.618 A 33.907 33.907 0 0 1 156.184 60.519 A 42.632 42.632 0 0 1 154.932 62.574 A 32.129 32.129 0 0 1 152.314 66.052 A 38.186 38.186 0 0 1 150.903 67.603 Q 148.535 70.069 145.361 72.364 A 40.571 40.571 0 0 1 141.061 75.064 A 50.44 50.44 0 0 1 138.086 76.563 A 31.877 31.877 0 0 1 142.676 82.642 A 41.555 41.555 0 0 1 145.923 89.6 Q 147.217 93.213 147.876 96.9 A 42.16 42.16 0 0 1 148.471 101.819 A 36.038 36.038 0 0 1 148.535 103.956 A 29.949 29.949 0 0 1 148.27 108.011 A 25.627 25.627 0 0 1 147.974 109.742 Q 147.412 112.452 146.314 114.454 A 10.846 10.846 0 0 1 145.104 116.236 A 8.423 8.423 0 0 1 143.652 117.603 A 5.867 5.867 0 0 1 140.088 118.75 A 6.31 6.31 0 0 1 138.076 118.445 A 5.121 5.121 0 0 1 135.547 116.578 A 10.701 10.701 0 0 1 134.379 114.538 Q 133.916 113.495 133.567 112.228 A 23.141 23.141 0 0 1 133.179 110.572 Q 132.422 106.739 132.3 101.539 A 428.832 428.832 0 0 1 132.208 96.113 A 544.903 544.903 0 0 1 132.178 90.235 L 132.178 83.179 A 1479.23 1479.23 0 0 1 132.184 79.004 A 1813.123 1813.123 0 0 1 132.202 74.537 A 20341.803 20341.803 0 0 0 132.239 67.368 A 23284.621 23284.621 0 0 0 132.251 64.869 Q 132.275 59.815 132.324 54.737 A 29829.906 29829.906 0 0 1 132.422 44.751 A 824.929 824.929 0 0 1 132.483 39.972 A 699.364 699.364 0 0 1 132.568 35.45 A 372.407 372.407 0 0 1 132.77 27.973 Q 132.902 24.463 133.097 21.343 A 217.344 217.344 0 0 1 133.154 20.459 A 108.831 108.831 0 0 1 133.56 15.804 Q 133.96 12.165 134.57 9.327 Q 135.547 4.786 137.232 2.417 Q 138.916 0.049 141.504 0.049 A 6.086 6.086 0 0 1 143.232 0.285 A 4.964 4.964 0 0 1 144.971 1.197 A 7.674 7.674 0 0 1 146.598 3.039 A 9.872 9.872 0 0 1 147.266 4.273 A 14.517 14.517 0 0 1 148.023 6.366 Q 148.32 7.425 148.51 8.628 A 23.33 23.33 0 0 1 148.535 8.79 A 35.494 35.494 0 0 1 148.912 13.156 A 40.088 40.088 0 0 1 148.926 14.209 Q 148.926 20.166 147.9 25.733 A 78.246 78.246 0 0 1 145.117 36.524 Q 143.359 41.749 140.991 46.729 A 174.517 174.517 0 0 1 135.938 56.543 L 135.938 60.865 L 135.938 65.503 A 400.139 400.139 0 0 1 135.924 68.873 A 350.363 350.363 0 0 1 135.913 69.947 Q 135.889 72.071 135.889 73.633 Z M 136.035 49.024 Q 138.037 45.264 139.722 41.089 A 78.785 78.785 0 0 0 142.627 32.471 A 76.17 76.17 0 0 0 144.531 23.389 A 63.883 63.883 0 0 0 145.215 14.063 A 43.314 43.314 0 0 0 145.16 11.829 A 32.039 32.039 0 0 0 144.995 9.815 Q 144.816 8.264 144.475 7.085 A 10.645 10.645 0 0 0 144.312 6.568 A 7.92 7.92 0 0 0 143.929 5.643 Q 143.702 5.183 143.433 4.821 A 4.045 4.045 0 0 0 143.14 4.468 A 2.57 2.57 0 0 0 142.531 3.98 A 2.052 2.052 0 0 0 141.504 3.711 Q 140.665 3.711 140.006 4.576 A 4.041 4.041 0 0 0 139.795 4.883 Q 139.063 6.055 138.525 8.008 A 30.579 30.579 0 0 0 138.059 9.968 Q 137.847 11.004 137.672 12.166 A 50.954 50.954 0 0 0 137.622 12.5 A 94.354 94.354 0 0 0 137.142 16.433 A 105.799 105.799 0 0 0 137.012 17.798 Q 136.768 20.557 136.621 23.316 A 252.203 252.203 0 0 0 136.493 25.989 A 206.563 206.563 0 0 0 136.401 28.492 A 314.199 314.199 0 0 0 136.347 30.499 Q 136.325 31.415 136.312 32.231 A 177.029 177.029 0 0 0 136.304 32.764 A 464.524 464.524 0 0 0 136.293 33.634 Q 136.284 34.471 136.281 35.062 A 98.036 98.036 0 0 0 136.279 35.547 Q 136.237 37.226 136.213 38.58 A 281.103 281.103 0 0 0 136.206 39.014 A 173.322 173.322 0 0 1 136.133 41.993 Q 136.084 43.458 136.06 45.118 Q 136.035 46.778 136.035 49.024 Z M 135.883 82.612 A 699.152 699.152 0 0 0 135.889 79.639 A 28.194 28.194 0 0 1 139.746 85.01 A 41.345 41.345 0 0 1 142.554 91.187 Q 143.701 94.385 144.263 97.657 A 41.445 41.445 0 0 1 144.559 99.673 A 35.139 35.139 0 0 1 144.824 103.907 A 14.328 14.328 0 0 1 144.824 103.959 Q 144.821 104.749 144.732 105.853 A 48.977 48.977 0 0 1 144.629 106.958 Q 144.434 108.838 143.921 110.645 A 11.941 11.941 0 0 1 143.478 111.931 A 9.397 9.397 0 0 1 142.481 113.77 A 3.915 3.915 0 0 1 142.193 114.132 A 2.72 2.72 0 0 1 140.088 115.088 A 2.081 2.081 0 0 1 138.704 114.578 Q 138.354 114.282 138.064 113.815 A 5.58 5.58 0 0 1 137.622 112.916 A 14.882 14.882 0 0 1 137.138 111.449 Q 136.887 110.545 136.69 109.475 A 35.11 35.11 0 0 1 136.353 107.203 A 54.811 54.811 0 0 1 136.326 106.974 Q 136.131 105.248 136.022 103.312 A 90.321 90.321 0 0 1 135.889 99.219 A 817.695 817.695 0 0 1 135.84 90.235 A 461.201 461.201 0 0 1 135.846 87.922 A 614.409 614.409 0 0 1 135.864 85.376 A 562.711 562.711 0 0 0 135.883 82.612 Z" id="4" vector-effect="non-scaling-stroke"/><path d="M 160.156 65.87 A 7.594 7.594 0 0 0 162.793 68.14 Q 164.282 68.93 166.398 68.99 A 12.41 12.41 0 0 0 166.748 68.995 A 8.592 8.592 0 0 0 170.09 68.349 A 8.253 8.253 0 0 0 171.094 67.847 A 14.061 14.061 0 0 0 174.146 65.407 A 16.247 16.247 0 0 0 174.658 64.844 A 23.85 23.85 0 0 0 177.298 61.12 A 26.568 26.568 0 0 0 177.539 60.694 Q 178.809 58.399 179.834 56.104 A 2.021 2.021 0 0 1 180.106 55.659 A 1.619 1.619 0 0 1 180.518 55.298 A 1.836 1.836 0 0 1 181.494 55.03 A 1.906 1.906 0 0 1 182.149 55.138 A 1.655 1.655 0 0 1 182.837 55.616 A 2.213 2.213 0 0 1 183.183 56.137 A 1.752 1.752 0 0 1 183.35 56.885 Q 183.35 57.129 183.301 57.3 A 1.835 1.835 0 0 1 183.24 57.477 A 2.5 2.5 0 0 1 183.155 57.666 Q 179.785 65.088 175.806 68.848 A 14.632 14.632 0 0 1 171.844 71.568 A 12.603 12.603 0 0 1 166.797 72.706 Q 163.574 72.706 161.231 71.46 A 11.918 11.918 0 0 1 158.075 69.068 A 11.164 11.164 0 0 1 157.373 68.238 A 13.583 13.583 0 0 1 155.127 63.77 A 17.575 17.575 0 0 1 154.395 58.79 Q 154.395 56.299 155.005 54.2 A 12.521 12.521 0 0 1 155.919 51.896 A 10.485 10.485 0 0 1 156.763 50.538 A 8.683 8.683 0 0 1 158.731 48.578 A 8.071 8.071 0 0 1 159.497 48.096 Q 161.084 47.217 162.988 47.217 A 5.638 5.638 0 0 1 165.107 47.639 A 6.452 6.452 0 0 1 165.21 47.681 A 6.375 6.375 0 0 1 167.188 49 A 6.376 6.376 0 0 1 168.427 50.701 A 7.471 7.471 0 0 1 168.604 51.075 A 6.262 6.262 0 0 1 169.065 52.734 A 8.079 8.079 0 0 1 169.141 53.858 A 10.394 10.394 0 0 1 168.627 57.146 A 9.795 9.795 0 0 1 168.457 57.618 Q 167.774 59.375 166.577 60.889 A 15.64 15.64 0 0 1 164.327 63.188 A 17.839 17.839 0 0 1 163.721 63.672 A 20.971 20.971 0 0 1 160.156 65.87 Z M 158.691 62.696 A 11.906 11.906 0 0 0 161.45 61.084 A 11.813 11.813 0 0 0 163.172 59.439 A 10.63 10.63 0 0 0 163.574 58.936 Q 164.453 57.764 164.941 56.47 A 7.349 7.349 0 0 0 165.43 53.858 A 4.683 4.683 0 0 0 165.358 53.012 Q 165.272 52.544 165.083 52.176 A 2.264 2.264 0 0 0 164.697 51.636 A 2.582 2.582 0 0 0 163.997 51.112 A 2.226 2.226 0 0 0 162.988 50.879 A 3.956 3.956 0 0 0 161.838 51.04 A 3.29 3.29 0 0 0 160.742 51.612 A 5.337 5.337 0 0 0 159.501 53.024 A 6.453 6.453 0 0 0 159.229 53.516 A 9.388 9.388 0 0 0 158.55 55.339 A 11.22 11.22 0 0 0 158.374 56.128 A 15.558 15.558 0 0 0 158.106 58.985 A 10.156 10.156 0 0 0 158.183 60.21 A 12.195 12.195 0 0 0 158.276 60.84 A 20.101 20.101 0 0 0 158.574 62.25 A 17.746 17.746 0 0 0 158.691 62.696 Z" id="5" vector-effect="non-scaling-stroke"/><path d="M 185.693 65.87 A 7.594 7.594 0 0 0 188.33 68.14 Q 189.82 68.93 191.935 68.99 A 12.41 12.41 0 0 0 192.285 68.995 A 8.592 8.592 0 0 0 195.627 68.349 A 8.253 8.253 0 0 0 196.631 67.847 A 14.061 14.061 0 0 0 199.684 65.407 A 16.247 16.247 0 0 0 200.195 64.844 A 23.85 23.85 0 0 0 202.835 61.12 A 26.568 26.568 0 0 0 203.076 60.694 Q 204.346 58.399 205.371 56.104 A 2.021 2.021 0 0 1 205.643 55.659 A 1.619 1.619 0 0 1 206.055 55.298 A 1.836 1.836 0 0 1 207.031 55.03 A 1.906 1.906 0 0 1 207.686 55.138 A 1.655 1.655 0 0 1 208.374 55.616 A 2.213 2.213 0 0 1 208.72 56.137 A 1.752 1.752 0 0 1 208.887 56.885 Q 208.887 57.129 208.838 57.3 A 1.835 1.835 0 0 1 208.777 57.477 A 2.5 2.5 0 0 1 208.692 57.666 Q 205.322 65.088 201.343 68.848 A 14.632 14.632 0 0 1 197.381 71.568 A 12.603 12.603 0 0 1 192.334 72.706 Q 189.111 72.706 186.768 71.46 A 11.918 11.918 0 0 1 183.612 69.068 A 11.164 11.164 0 0 1 182.91 68.238 A 13.583 13.583 0 0 1 180.664 63.77 A 17.575 17.575 0 0 1 179.932 58.79 Q 179.932 56.299 180.542 54.2 A 12.521 12.521 0 0 1 181.456 51.896 A 10.485 10.485 0 0 1 182.3 50.538 A 8.683 8.683 0 0 1 184.268 48.578 A 8.071 8.071 0 0 1 185.034 48.096 Q 186.621 47.217 188.525 47.217 A 5.638 5.638 0 0 1 190.644 47.639 A 6.452 6.452 0 0 1 190.747 47.681 A 6.375 6.375 0 0 1 192.725 49 A 6.376 6.376 0 0 1 193.964 50.701 A 7.471 7.471 0 0 1 194.141 51.075 A 6.262 6.262 0 0 1 194.602 52.734 A 8.079 8.079 0 0 1 194.678 53.858 A 10.394 10.394 0 0 1 194.164 57.146 A 9.795 9.795 0 0 1 193.994 57.618 Q 193.311 59.375 192.114 60.889 A 15.64 15.64 0 0 1 189.864 63.188 A 17.839 17.839 0 0 1 189.258 63.672 A 20.971 20.971 0 0 1 185.693 65.87 Z M 184.229 62.696 A 11.906 11.906 0 0 0 186.987 61.084 A 11.813 11.813 0 0 0 188.709 59.439 A 10.63 10.63 0 0 0 189.111 58.936 Q 189.99 57.764 190.479 56.47 A 7.349 7.349 0 0 0 190.967 53.858 A 4.683 4.683 0 0 0 190.895 53.012 Q 190.809 52.544 190.62 52.176 A 2.264 2.264 0 0 0 190.234 51.636 A 2.582 2.582 0 0 0 189.534 51.112 A 2.226 2.226 0 0 0 188.525 50.879 A 3.956 3.956 0 0 0 187.375 51.04 A 3.29 3.29 0 0 0 186.279 51.612 A 5.337 5.337 0 0 0 185.038 53.024 A 6.453 6.453 0 0 0 184.766 53.516 A 9.388 9.388 0 0 0 184.087 55.339 A 11.22 11.22 0 0 0 183.911 56.128 A 15.558 15.558 0 0 0 183.643 58.985 A 10.156 10.156 0 0 0 183.72 60.21 A 12.195 12.195 0 0 0 183.814 60.84 A 20.101 20.101 0 0 0 184.111 62.25 A 17.746 17.746 0 0 0 184.229 62.696 Z" id="6" vector-effect="non-scaling-stroke"/><path d="M 224.316 57.032 A 45.721 45.721 0 0 0 225.289 60.865 Q 227.121 66.871 229.876 68.033 A 3.502 3.502 0 0 0 231.25 68.311 A 4.92 4.92 0 0 0 233.65 67.671 A 6.732 6.732 0 0 0 234.619 67.017 A 16.04 16.04 0 0 0 236.708 64.987 A 19.453 19.453 0 0 0 237.622 63.843 A 28.473 28.473 0 0 0 240.088 59.864 A 91.815 91.815 0 0 0 240.839 58.365 Q 241.201 57.623 241.504 56.964 A 46.486 46.486 0 0 0 241.846 56.202 Q 242.334 55.03 243.555 55.03 Q 244.336 55.03 244.873 55.616 A 2.235 2.235 0 0 1 245.218 56.103 A 1.691 1.691 0 0 1 245.41 56.885 A 1.764 1.764 0 0 1 245.378 57.23 A 1.338 1.338 0 0 1 245.264 57.569 A 26.094 26.094 0 0 1 245.073 58.019 Q 244.856 58.519 244.554 59.169 A 87.757 87.757 0 0 1 244.263 59.791 A 30.243 30.243 0 0 1 243.53 61.231 A 39.844 39.844 0 0 1 242.651 62.769 A 50.537 50.537 0 0 1 241.1 65.191 A 58.12 58.12 0 0 1 240.527 66.016 Q 239.356 67.676 237.94 68.995 A 14.774 14.774 0 0 1 235.526 70.831 A 13.433 13.433 0 0 1 234.937 71.167 A 6.956 6.956 0 0 1 231.592 72.022 Q 228.32 72.022 225.977 69.751 A 10.849 10.849 0 0 1 224.44 67.841 Q 223.045 65.685 221.924 62.256 A 40.536 40.536 0 0 1 220.473 65.07 Q 218.971 67.704 217.449 69.229 A 11.126 11.126 0 0 1 217.188 69.483 Q 214.795 71.729 212.012 71.729 Q 210.547 71.729 209.18 71.265 A 5.88 5.88 0 0 1 206.787 69.727 A 7.093 7.093 0 0 1 205.757 68.325 A 9.576 9.576 0 0 1 205.127 66.968 Q 204.604 65.58 204.512 63.677 A 17.3 17.3 0 0 1 204.492 62.842 A 16.908 16.908 0 0 1 204.997 58.652 A 14.836 14.836 0 0 1 205.664 56.641 A 17.485 17.485 0 0 1 207.396 53.416 A 14.927 14.927 0 0 1 208.691 51.783 Q 210.547 49.756 212.817 48.633 Q 215.088 47.51 217.334 47.51 A 1.777 1.777 0 0 1 218.604 48.023 Q 219.141 48.536 219.141 49.317 Q 219.141 50 218.701 50.538 A 1.74 1.74 0 0 1 217.597 51.162 A 2.252 2.252 0 0 1 217.529 51.172 A 10.034 10.034 0 0 0 215.918 51.531 A 13.706 13.706 0 0 0 214.404 52.1 Q 212.744 52.833 211.353 54.224 Q 209.961 55.616 209.058 57.764 A 10.977 10.977 0 0 0 208.38 60.12 Q 208.154 61.402 208.154 62.891 A 9.688 9.688 0 0 0 208.252 64.312 Q 208.366 65.081 208.614 65.707 A 4.435 4.435 0 0 0 209.155 66.7 A 3.254 3.254 0 0 0 211.536 68.039 A 4.807 4.807 0 0 0 212.061 68.067 A 3.347 3.347 0 0 0 212.918 67.95 Q 213.284 67.853 213.669 67.676 A 5.599 5.599 0 0 0 213.721 67.652 A 3.59 3.59 0 0 0 214.339 67.271 Q 214.944 66.817 215.601 66.016 Q 216.579 64.822 217.745 62.648 A 41.335 41.335 0 0 0 217.798 62.549 Q 218.602 61.04 219.527 58.892 A 93.728 93.728 0 0 0 220.459 56.641 A 116.877 116.877 0 0 1 219.761 52.629 Q 219.33 49.888 218.945 46.729 A 89.606 89.606 0 0 1 218.433 40.784 A 121.604 121.604 0 0 1 218.262 34.18 A 103.599 103.599 0 0 1 218.372 29.488 A 117.921 117.921 0 0 1 218.457 27.857 A 81.528 81.528 0 0 1 219.092 21.412 A 55.015 55.015 0 0 1 219.916 16.866 A 48.578 48.578 0 0 1 220.264 15.43 Q 220.996 12.598 222.046 10.45 A 13.235 13.235 0 0 1 223.025 8.756 Q 223.71 7.761 224.512 7.056 A 4.745 4.745 0 0 1 227.734 5.811 Q 229.346 5.811 230.469 6.69 Q 231.592 7.569 232.3 9.131 Q 232.937 10.538 233.278 12.46 A 20.713 20.713 0 0 1 233.35 12.891 A 28.209 28.209 0 0 1 233.626 15.502 A 36.435 36.435 0 0 1 233.691 17.725 A 66.558 66.558 0 0 1 232.715 29.053 A 111.763 111.763 0 0 1 230.651 38.591 A 101.126 101.126 0 0 1 230.298 39.893 A 136.327 136.327 0 0 1 228.455 45.984 A 110.758 110.758 0 0 1 227.246 49.463 A 258.659 258.659 0 0 1 226.079 52.588 Q 225.14 55.048 224.316 57.032 Z M 230.029 17.676 A 45.77 45.77 0 0 0 230.011 16.407 A 57.289 57.289 0 0 0 229.956 15.04 A 17.583 17.583 0 0 0 229.763 13.173 A 14.989 14.989 0 0 0 229.614 12.378 Q 229.401 11.389 229.079 10.661 A 5.617 5.617 0 0 0 228.906 10.303 Q 228.618 9.758 228.203 9.571 A 1.126 1.126 0 0 0 227.734 9.473 A 1.565 1.565 0 0 0 226.798 9.808 Q 226.255 10.206 225.75 11.081 A 8.885 8.885 0 0 0 225.464 11.622 A 17.655 17.655 0 0 0 224.718 13.411 Q 224.383 14.346 224.082 15.447 A 39.785 39.785 0 0 0 223.633 17.261 A 59.313 59.313 0 0 0 222.931 20.984 Q 222.625 22.931 222.395 25.102 A 96.236 96.236 0 0 0 222.388 25.171 Q 221.924 29.59 221.924 34.083 A 108.335 108.335 0 0 0 222.266 42.676 A 186.394 186.394 0 0 0 222.608 46.501 Q 222.814 48.552 223.047 50.342 A 159.473 159.473 0 0 0 225.733 42.603 A 101.165 101.165 0 0 0 227.954 34.473 Q 228.906 30.323 229.468 26.099 Q 230.029 21.875 230.029 17.676 Z" id="7" vector-effect="non-scaling-stroke"/></g></svg>