<svg width="72.461" height="118.702" viewBox="0 0 72.461 118.702" xmlns="http://www.w3.org/2000/svg"><g id="svgGroup" stroke-linecap="round" fill-rule="evenodd" font-size="9pt" stroke="#000" stroke-width="0.25mm" fill="#000" style="stroke:#000;stroke-width:0.25mm;fill:#000"><path d="M 15.479 58.497 L 16.113 50.098 A 1.709 1.709 0 0 1 16.706 48.893 A 2.112 2.112 0 0 1 16.724 48.877 A 1.914 1.914 0 0 1 18.018 48.389 A 1.819 1.819 0 0 1 18.636 48.49 A 1.562 1.562 0 0 1 19.336 48.999 A 2.167 2.167 0 0 1 19.824 50.391 L 19.287 58.448 Q 19.192 60.136 19.294 61.513 A 14.562 14.562 0 0 0 19.458 62.891 A 11.365 11.365 0 0 0 19.769 64.24 Q 20.062 65.214 20.508 65.943 A 5.321 5.321 0 0 0 21.298 66.953 A 4.221 4.221 0 0 0 22.315 67.701 A 4.983 4.983 0 0 0 24.341 68.251 A 5.961 5.961 0 0 0 24.707 68.262 A 5.007 5.007 0 0 0 26.237 68.037 A 4.233 4.233 0 0 0 27.686 67.237 A 6.438 6.438 0 0 0 29.006 65.692 A 8.601 8.601 0 0 0 29.639 64.454 A 14.025 14.025 0 0 0 30.267 62.555 Q 30.53 61.536 30.689 60.376 A 34.79 34.79 0 0 0 30.984 56.825 A 40.499 40.499 0 0 0 31.006 55.469 Q 31.006 53.255 30.829 51.572 A 20.631 20.631 0 0 0 30.664 50.342 Q 30.369 48.573 30.329 47.821 A 4.014 4.014 0 0 1 30.322 47.608 A 1.807 1.807 0 0 1 30.824 46.351 A 2.349 2.349 0 0 1 30.859 46.314 A 1.749 1.749 0 0 1 32.129 45.753 A 2.143 2.143 0 0 1 32.178 45.752 A 1.875 1.875 0 0 1 32.844 45.868 A 1.704 1.704 0 0 1 33.35 46.167 Q 33.838 46.582 33.984 47.266 Q 34.03 47.449 34.247 48.273 A 690.48 690.48 0 0 0 34.277 48.389 A 24.141 24.141 0 0 0 34.488 49.136 Q 34.587 49.469 34.705 49.838 A 48.126 48.126 0 0 0 34.961 50.611 A 20.698 20.698 0 0 0 35.54 52.113 A 26.345 26.345 0 0 0 36.108 53.345 Q 36.816 54.786 37.817 56.006 A 9.342 9.342 0 0 0 40.112 58.033 A 5.364 5.364 0 0 0 42.645 58.825 A 6.565 6.565 0 0 0 43.066 58.838 A 3.93 3.93 0 0 0 43.814 58.771 A 2.82 2.82 0 0 0 44.653 58.472 A 4.63 4.63 0 0 0 45.325 58.021 A 3.766 3.766 0 0 0 45.752 57.618 Q 46.191 57.129 46.411 56.69 L 46.68 56.153 Q 46.924 55.616 47.388 55.298 A 1.738 1.738 0 0 1 48.389 54.981 A 1.827 1.827 0 0 1 49.065 55.102 A 1.66 1.66 0 0 1 49.732 55.591 Q 50.244 56.202 50.244 56.885 A 1.845 1.845 0 0 1 50.194 57.29 Q 50.084 57.776 49.732 58.448 A 6.856 6.856 0 0 1 48.953 59.611 A 8.794 8.794 0 0 1 48.291 60.328 A 8.09 8.09 0 0 1 46.932 61.385 A 10.143 10.143 0 0 1 46.021 61.89 A 6.518 6.518 0 0 1 43.416 62.541 A 7.671 7.671 0 0 1 43.066 62.549 A 8.515 8.515 0 0 1 41.212 62.353 A 7.47 7.47 0 0 1 40.43 62.134 Q 39.209 61.719 38.159 61.036 A 11.911 11.911 0 0 1 36.231 59.473 Q 35.352 58.594 34.619 57.618 Q 34.473 60.157 33.936 62.72 A 17.167 17.167 0 0 1 32.982 65.829 A 14.669 14.669 0 0 1 32.251 67.334 A 9.913 9.913 0 0 1 29.248 70.679 A 7.045 7.045 0 0 1 26.529 71.802 A 9.785 9.785 0 0 1 24.658 71.973 A 9.657 9.657 0 0 1 23.159 71.862 A 7.038 7.038 0 0 1 21.655 71.46 A 7.694 7.694 0 0 1 19.98 70.553 A 6.876 6.876 0 0 1 19.409 70.093 A 7.961 7.961 0 0 1 17.822 68.14 A 14.322 14.322 0 0 1 16.748 65.821 Q 15.039 68.653 12.72 70.191 Q 10.4 71.729 8.106 71.729 A 8.664 8.664 0 0 1 6.134 71.513 A 7.201 7.201 0 0 1 4.761 71.045 Q 3.272 70.362 2.222 69.117 A 8.493 8.493 0 0 1 0.998 67.162 A 10.499 10.499 0 0 1 0.586 66.114 A 11.235 11.235 0 0 1 0.097 63.875 A 14.624 14.624 0 0 1 0 62.159 Q 0 58.497 0.659 55.835 A 33.583 33.583 0 0 1 1.173 53.978 Q 1.62 52.535 2.124 51.465 A 22.765 22.765 0 0 1 2.613 50.486 Q 3.086 49.596 3.513 49.031 A 5.879 5.879 0 0 1 3.613 48.902 L 4.297 48.047 A 1.511 1.511 0 0 1 4.907 47.608 A 2.02 2.02 0 0 1 5.664 47.461 Q 6.445 47.461 6.958 48.023 Q 7.471 48.584 7.471 49.317 Q 7.471 49.854 7.08 50.489 A 65.423 65.423 0 0 1 6.968 50.656 Q 6.804 50.901 6.513 51.331 A 703.977 703.977 0 0 1 6.323 51.612 Q 5.942 52.176 5.549 53.011 A 19.513 19.513 0 0 0 5.176 53.858 A 16.291 16.291 0 0 0 4.72 55.113 Q 4.401 56.107 4.126 57.325 A 17.42 17.42 0 0 0 3.809 59.259 Q 3.699 60.26 3.671 61.39 A 31.584 31.584 0 0 0 3.662 62.159 Q 3.662 64.007 4.144 65.282 A 4.671 4.671 0 0 0 4.834 66.529 Q 6.006 68.018 8.106 68.018 Q 9.131 68.018 10.352 67.456 Q 11.572 66.895 12.647 65.723 Q 13.717 64.556 14.496 62.758 A 14.607 14.607 0 0 0 14.502 62.745 Q 15.26 60.993 15.466 58.644 A 18.691 18.691 0 0 0 15.479 58.497 Z" id="0" vector-effect="non-scaling-stroke"/><path d="M 50.537 73.584 A 39.315 39.315 0 0 0 55.586 70.893 A 34.622 34.622 0 0 0 57.105 69.873 A 43.11 43.11 0 0 0 60.866 66.883 A 37.176 37.176 0 0 0 62.378 65.455 A 34.494 34.494 0 0 0 65.128 62.368 A 28.991 28.991 0 0 0 66.333 60.718 A 34.919 34.919 0 0 0 67.804 58.356 A 26.092 26.092 0 0 0 68.945 56.104 Q 69.313 55.206 70.226 55.059 A 2.382 2.382 0 0 1 70.606 55.03 A 1.991 1.991 0 0 1 71.244 55.128 A 1.657 1.657 0 0 1 71.948 55.591 A 2.067 2.067 0 0 1 72.299 56.106 A 1.7 1.7 0 0 1 72.461 56.836 A 1.839 1.839 0 0 1 72.315 57.569 A 33.907 33.907 0 0 1 70.832 60.47 A 42.632 42.632 0 0 1 69.58 62.525 A 32.129 32.129 0 0 1 66.963 66.003 A 38.186 38.186 0 0 1 65.552 67.554 Q 63.184 70.02 60.01 72.315 A 40.571 40.571 0 0 1 55.709 75.015 A 50.44 50.44 0 0 1 52.734 76.514 A 31.877 31.877 0 0 1 57.324 82.593 A 41.555 41.555 0 0 1 60.571 89.551 Q 61.865 93.164 62.525 96.851 A 42.16 42.16 0 0 1 63.119 101.77 A 36.038 36.038 0 0 1 63.184 103.907 A 29.949 29.949 0 0 1 62.918 107.962 A 25.627 25.627 0 0 1 62.622 109.693 Q 62.061 112.403 60.962 114.405 A 10.846 10.846 0 0 1 59.753 116.187 A 8.423 8.423 0 0 1 58.301 117.554 A 5.867 5.867 0 0 1 54.736 118.702 A 6.31 6.31 0 0 1 52.725 118.396 A 5.121 5.121 0 0 1 50.195 116.529 A 10.701 10.701 0 0 1 49.027 114.489 Q 48.564 113.446 48.215 112.18 A 23.141 23.141 0 0 1 47.827 110.523 Q 47.07 106.69 46.948 101.49 A 428.832 428.832 0 0 1 46.857 96.064 A 544.903 544.903 0 0 1 46.826 90.186 L 46.826 83.13 A 1479.23 1479.23 0 0 1 46.832 78.955 A 1813.123 1813.123 0 0 1 46.851 74.488 A 20341.803 20341.803 0 0 0 46.887 67.319 A 23284.621 23284.621 0 0 0 46.9 64.82 Q 46.924 59.766 46.973 54.688 A 29829.906 29829.906 0 0 1 47.07 44.703 A 824.929 824.929 0 0 1 47.131 39.924 A 699.364 699.364 0 0 1 47.217 35.401 A 372.407 372.407 0 0 1 47.419 27.924 Q 47.551 24.414 47.746 21.294 A 217.344 217.344 0 0 1 47.803 20.411 A 108.831 108.831 0 0 1 48.208 15.755 Q 48.608 12.116 49.219 9.278 Q 50.195 4.737 51.88 2.369 Q 53.565 0 56.152 0 A 6.086 6.086 0 0 1 57.881 0.236 A 4.964 4.964 0 0 1 59.619 1.148 A 7.674 7.674 0 0 1 61.246 2.99 A 9.872 9.872 0 0 1 61.914 4.224 A 14.517 14.517 0 0 1 62.671 6.318 Q 62.969 7.376 63.159 8.58 A 23.33 23.33 0 0 1 63.184 8.741 A 35.494 35.494 0 0 1 63.561 13.107 A 40.088 40.088 0 0 1 63.574 14.161 Q 63.574 20.118 62.549 25.684 A 78.246 78.246 0 0 1 59.766 36.475 Q 58.008 41.7 55.64 46.68 A 174.517 174.517 0 0 1 50.586 56.495 L 50.586 60.816 L 50.586 65.455 A 400.139 400.139 0 0 1 50.572 68.824 A 350.363 350.363 0 0 1 50.562 69.898 Q 50.537 72.022 50.537 73.584 Z M 50.684 48.975 Q 52.686 45.215 54.37 41.04 A 78.785 78.785 0 0 0 57.275 32.422 A 76.17 76.17 0 0 0 59.18 23.34 A 63.883 63.883 0 0 0 59.863 14.014 A 43.314 43.314 0 0 0 59.808 11.78 A 32.039 32.039 0 0 0 59.644 9.766 Q 59.465 8.215 59.124 7.037 A 10.645 10.645 0 0 0 58.96 6.519 A 7.92 7.92 0 0 0 58.578 5.594 Q 58.35 5.134 58.081 4.772 A 4.045 4.045 0 0 0 57.788 4.419 A 2.57 2.57 0 0 0 57.18 3.931 A 2.052 2.052 0 0 0 56.152 3.663 Q 55.314 3.663 54.655 4.527 A 4.041 4.041 0 0 0 54.443 4.834 Q 53.711 6.006 53.174 7.959 A 30.579 30.579 0 0 0 52.708 9.919 Q 52.495 10.955 52.32 12.117 A 50.954 50.954 0 0 0 52.271 12.452 A 94.354 94.354 0 0 0 51.79 16.384 A 105.799 105.799 0 0 0 51.66 17.749 Q 51.416 20.508 51.27 23.267 A 252.203 252.203 0 0 0 51.141 25.94 A 206.563 206.563 0 0 0 51.05 28.443 A 314.199 314.199 0 0 0 50.995 30.45 Q 50.973 31.366 50.96 32.182 A 177.029 177.029 0 0 0 50.952 32.715 A 464.524 464.524 0 0 0 50.942 33.585 Q 50.932 34.422 50.929 35.013 A 98.036 98.036 0 0 0 50.928 35.498 Q 50.886 37.177 50.862 38.531 A 281.103 281.103 0 0 0 50.855 38.965 A 173.322 173.322 0 0 1 50.781 41.944 Q 50.733 43.409 50.708 45.069 Q 50.684 46.729 50.684 48.975 Z M 50.531 82.563 A 699.152 699.152 0 0 0 50.537 79.59 A 28.194 28.194 0 0 1 54.395 84.961 A 41.345 41.345 0 0 1 57.202 91.138 Q 58.35 94.336 58.911 97.608 A 41.445 41.445 0 0 1 59.207 99.624 A 35.139 35.139 0 0 1 59.473 103.858 A 14.328 14.328 0 0 1 59.473 103.91 Q 59.47 104.7 59.38 105.804 A 48.977 48.977 0 0 1 59.277 106.91 Q 59.082 108.789 58.569 110.596 A 11.941 11.941 0 0 1 58.127 111.882 A 9.397 9.397 0 0 1 57.129 113.721 A 3.915 3.915 0 0 1 56.842 114.083 A 2.72 2.72 0 0 1 54.736 115.039 A 2.081 2.081 0 0 1 53.353 114.529 Q 53.003 114.233 52.713 113.766 A 5.58 5.58 0 0 1 52.271 112.867 A 14.882 14.882 0 0 1 51.786 111.4 Q 51.536 110.496 51.338 109.426 A 35.11 35.11 0 0 1 51.001 107.154 A 54.811 54.811 0 0 1 50.975 106.925 Q 50.78 105.199 50.67 103.263 A 90.321 90.321 0 0 1 50.537 99.17 A 817.695 817.695 0 0 1 50.488 90.186 A 461.201 461.201 0 0 1 50.494 87.873 A 614.409 614.409 0 0 1 50.513 85.328 A 562.711 562.711 0 0 0 50.531 82.563 Z" id="1" vector-effect="non-scaling-stroke"/></g></svg>